<svg id="Capa_1" xmlns="http://www.w3.org/2000/svg" viewBox="193 -192.7 377.1 394.3"><style>.st0{display:none}.st1{fill:#d0d0d0}.st2{fill:#7d3daf}.st3{fill:#fff}</style><path class="st1" d="M529.1-150.4c-35.7-38.2-115-42.3-147.5-42.3s-111.9 4.1-147.5 42.3C206.4-120.8 193-77.5 193-18.1s13.4 102.8 41.1 132.4c12.5 13.4 30.3 22.5 49.7 28.8v42.5c0 6.5 3.9 12.3 9.9 14.8 2 .8 4.1 1.2 6.1 1.2 4.2 0 8.2-1.6 11.3-4.7l41.4-41.4c11.5.8 21.6 1.1 29.2 1.1 32.5 0 111.9-4.1 147.5-42.3 27.7-29.6 41.1-72.9 41.1-132.3-.1-59.5-13.5-102.8-41.2-132.4zm-2.8 262c-34.5 37-112.6 41-144.6 41-6 0-16-.2-28.9-1.1h-.3c-1.1 0-2.1.4-2.8 1.2l-41.4 41.4c-2.3 2.3-5.2 3.5-8.5 3.5-1.5 0-3.1-.3-4.6-.9-4.5-1.9-7.4-6.2-7.4-11.1v-42.5c0-1.7-1.1-3.3-2.8-3.8-21.1-6.8-37.2-16.2-48-27.7-26.9-28.8-40-71.2-40-129.7 0-58.4 13.1-100.8 40-129.6 34.5-37 112.6-41 144.6-41 31.9 0 110 4 144.6 41 26.9 28.7 40 71.2 40.1 129.7 0 58.4-13.1 100.8-40 129.6z"/><path class="st2" d="M505.8-128.6c-19.5-20.9-69.5-32.1-124.2-32.1S277-149.5 257.5-128.6 225-74.4 225-18.1c0 56.4 13 89.6 32.5 110.5 8.8 9.4 23.6 16.8 42.3 22.1v71l61.5-61.5c6.7.4 13.5.5 20.4.5 54.7 0 104.6-11.2 124.2-32.1 19.5-20.9 32.5-54.2 32.5-110.5-.1-56.3-13.1-89.6-32.6-110.5z"/><path class="st3" d="M439.4 89.6c-4-1.2-7.8-2-11.4-3.5-36.8-15.3-70.6-34.9-97.4-65.1-15.2-17.2-27.2-36.5-37.3-57-4.8-9.7-8.8-19.8-12.9-29.9-3.7-9.2 1.8-18.6 7.6-25.5 5.5-6.5 12.5-11.4 20.1-15.1 5.9-2.8 11.8-1.2 16.1 3.8 9.4 10.9 18 22.3 24.9 34.9 4.3 7.7 3.1 17.2-4.7 22.5-1.9 1.3-3.6 2.8-5.4 4.2-1.5 1.3-3 2.6-4 4.3-1.9 3.1-2 6.9-.8 10.3 9.6 26.3 25.7 46.8 52.2 57.8 4.2 1.8 8.5 3.8 13.4 3.2 8.2-1 10.8-9.9 16.5-14.6 5.6-4.6 12.8-4.6 18.8-.8S447 27 452.8 31.2c5.7 4.1 11.4 8 16.6 12.7 5.1 4.5 6.8 10.3 4 16.4-5.2 11.1-12.8 20.3-23.8 26.2-3 1.5-6.7 2.1-10.2 3.1-4-1.2 3.5-1 0 0zm-60.4-205c48.1 1.3 87.6 33.3 96.1 80.8 1.4 8.1 2 16.4 2.6 24.6.3 3.5-1.7 6.7-5.4 6.8-3.9 0-5.6-3.2-5.8-6.6-.5-6.8-.8-13.7-1.8-20.5-5-35.8-33.6-65.5-69.2-71.8-5.4-1-10.9-1.2-16.3-1.8-3.4-.4-7.9-.6-8.7-4.8-.6-3.6 2.4-6.4 5.8-6.6.8-.1 1.8-.1 2.7-.1 48.1 1.4-.9 0 0 0z"/><path class="st3" d="M452.1-20.6c-.1.6-.1 2-.5 3.3-1.3 4.8-8.6 5.4-10.3.6-.5-1.4-.6-3.1-.6-4.6 0-10.2-2.2-20.4-7.4-29.2-5.3-9.1-13.4-16.8-22.8-21.4-5.7-2.8-11.9-4.5-18.2-5.6-2.7-.5-5.5-.7-8.3-1.1-3.3-.5-5.1-2.6-5-5.9.1-3.1 2.4-5.3 5.8-5.1 11 .6 21.7 3 31.5 8.2 20 10.6 31.4 27.3 34.7 49.5.2 1 .4 2 .5 3 .3 2.5.4 5 .6 8.3-.1.6-.2-3.3 0 0z"/><path class="st3" d="M422.2-21.8c-4 .1-6.2-2.2-6.6-5.8-.3-2.6-.5-5.2-1.1-7.7-1.2-4.9-3.8-9.5-8-12.5-2-1.4-4.2-2.5-6.5-3.1-3-.9-6-.6-9-1.3-3.2-.8-5-3.4-4.5-6.4.5-2.7 3.1-4.9 6.1-4.6 18.6 1.3 32 11 33.9 32.9.1 1.5.3 3.2-.1 4.7-.5 2.4-2.4 3.7-4.2 3.8-4.1.1 1.8-.1 0 0z"/></svg>