<svg id="Layer_1" xmlns="http://www.w3.org/2000/svg" viewBox="221 -221 388 388"><style>.st0{fill:#d0d0d0}.st1{fill:#72bd4e}.st2{fill:#fefefe}</style><path class="st0" d="M414.3-221C308-221 221-134 221-28.3c0 34.7 9.4 68.2 26.8 98.3L221 167l99-26.8c28.7 16.1 60.9 26.8 94.3 26.8C520.7 167 609 77.4 609-28.3S520.6-221 414.3-221zm134.4 327.2c-17.6 17.8-38.1 31.7-60.7 41.5-23.5 10.2-48.3 15.3-73.7 15.3-30.2 0-61.2-8.8-92.3-26.3-.6-.3-1.3-.5-2-.5-.4 0-.7 0-1 .1l-92.2 25 24.9-90.2c.3-1 .1-2.1-.4-3.1C234.1 38.3 225 5 225-28.3c0-25.3 5-49.9 14.9-73.1 9.6-22.4 23.3-42.6 40.7-60 17.4-17.4 37.7-31.1 60.2-40.6 23.3-9.9 48.1-14.9 73.5-14.9s50.2 5 73.7 14.9c22.7 9.6 43.1 23.2 60.7 40.6 17.6 17.4 31.5 37.6 41.2 60 10 23.3 15.1 47.9 15.1 73.1 0 25.3-5.1 50-15.1 73.5-9.7 22.8-23.6 43.3-41.2 61z"/><path class="st1" d="M325.4 105.5l6 3.3c24.8 15.4 53.5 24.8 83.6 24.8 87.6 0 160.6-72.9 160.6-161.9s-72.9-159.2-161.2-159.2-160 70.9-160 159.2c0 30.8 8.7 60.9 24.8 86.3l4 6-15.4 56.2 57.6-14.7z"/><path class="st2" d="M362.8-118l-12.7-.7c-4 0-8 1.3-10.7 4-6 5.4-16.1 15.4-18.7 28.8-4.7 20.1 2.7 44.2 20.1 68.2S391.6 45.2 450.5 62c18.7 5.4 33.4 2 45.5-5.4 9.4-6 15.4-15.4 17.4-25.4l2-9.4c.7-2.7-.7-6-3.3-7.4L470-5c-2.7-1.3-6-.7-8 2l-16.7 21.4c-1.3 1.3-3.3 2-5.4 1.3-11.4-4-49.5-20.1-70.2-60.2-.7-2-.7-4 .7-5.4L386.5-64c1.3-2 2-4.7 1.3-6.7L368.2-114c-.7-2-2.7-4-5.4-4"/></svg>